<svg xmlns="http://www.w3.org/2000/svg" viewBox="0 0 64 64">
  <defs>
    <linearGradient id="sg" x1="0%" y1="0%" x2="100%" y2="100%">
      <stop offset="0%" stop-color="#2563eb"/><stop offset="100%" stop-color="#1e40af"/>
    </linearGradient>
    <linearGradient id="lg" x1="0%" y1="0%" x2="100%" y2="100%">
      <stop offset="0%" stop-color="#22c55e"/><stop offset="100%" stop-color="#16a34a"/>
    </linearGradient>
  </defs>
  <path d="M32 3 C32 3,8 10,8 26 C8 44,32 61,32 61 C32 61,56 44,56 26 C56 10,32 3,32 3Z" fill="url(#sg)"/>
  <path d="M40 19 C44 17,48 20,47 25 C46 30,40 32,37 29 C39 27,42 24,40 19Z" fill="url(#lg)" opacity="0.9"/>
  <path d="M22 31 L29 38 L43 22" fill="none" stroke="#fff" stroke-width="4.5" stroke-linecap="round" stroke-linejoin="round"/>
  <path d="M44 15 C46 13,48 13,48 15" fill="none" stroke="rgba(255,255,255,0.6)" stroke-width="1.2" stroke-linecap="round"/>
  <path d="M44 12 C47 9,50 9,50 12" fill="none" stroke="rgba(255,255,255,0.4)" stroke-width="1" stroke-linecap="round"/>
</svg>
